<?xml version="1.0" standalone="no"?>
<!DOCTYPE svg PUBLIC "-//W3C//DTD SVG 20010904//EN"
 "http://www.w3.org/TR/2001/REC-SVG-20010904/DTD/svg10.dtd">
<svg version="1.0" xmlns="http://www.w3.org/2000/svg"
 width="300.000000pt" height="232.000000pt" viewBox="0 0 300.000000 232.000000"
 preserveAspectRatio="xMidYMid meet">
<metadata>
Created by potrace 1.10, written by Peter Selinger 2001-2011
</metadata>
<g transform="translate(0.000000,232.000000) scale(0.100000,-0.100000)"
fill="#000000" stroke="none">
<path d="M2150 1919 c-146 -44 -420 -125 -610 -180 -190 -56 -358 -108 -374
-116 -17 -9 -53 -39 -82 -67 -44 -45 -53 -61 -65 -116 l-14 -63 -83 -26 c-68
-21 -87 -31 -98 -53 -8 -16 -11 -28 -7 -28 5 0 13 10 18 22 7 16 33 29 91 48
l82 26 7 -71 c8 -87 44 -275 57 -295 10 -17 11 -20 -20 135 -46 230 -39 316
33 401 43 50 48 53 152 82 59 17 147 42 196 56 48 14 91 26 95 27 4 0 -1 4
-12 8 -13 5 4 13 64 30 45 12 84 20 86 18 3 -3 -25 -13 -61 -22 -36 -10 -63
-20 -61 -23 3 -2 62 13 132 34 95 28 122 40 108 46 -14 6 -10 7 12 4 17 -3 42
-2 54 1 23 6 23 7 4 15 -13 6 -9 7 16 4 19 -3 44 0 55 5 15 6 11 7 -15 3 -70
-13 -21 5 165 60 128 37 193 52 201 45 8 -6 13 -5 17 5 3 8 25 20 49 26 49 13
111 40 88 39 -8 -1 -134 -37 -280 -80z m-313 -115 c-3 -3 -12 -4 -19 -1 -8 3
-5 6 6 6 11 1 17 -2 13 -5z m-97 -29 c-19 -7 -44 -13 -55 -13 -11 0 -2 6 20
13 52 18 80 17 35 0z m-295 -86 c-33 -10 -64 -18 -70 -18 -15 1 97 38 115 37
8 0 -12 -8 -45 -19z m-100 -29 c-11 -5 -27 -9 -35 -9 -9 0 -8 4 5 9 11 5 27 9
35 9 9 0 8 -4 -5 -9z m-85 -25 c-19 -7 -42 -13 -50 -13 -8 0 1 6 20 13 19 7
42 13 50 13 8 0 -1 -6 -20 -13z"/>
<path d="M2443 1975 c-102 -72 -8 -627 163 -967 19 -37 39 -68 45 -68 8 0 8 4
0 14 -9 11 1 26 51 76 l63 62 -61 -51 c-33 -28 -63 -51 -66 -51 -6 0 -21 41
-19 53 1 5 -4 5 -10 1 -9 -5 -10 -2 -6 9 3 10 3 17 -2 17 -5 0 -14 15 -21 33
-7 17 -22 52 -33 77 -11 24 -21 58 -24 75 -2 16 -10 46 -18 66 -13 34 -35 115
-49 184 -5 22 -4 26 4 15 5 -8 10 -10 10 -4 0 6 -7 17 -15 24 -9 7 -14 22 -13
34 2 11 -1 43 -5 70 -8 48 -8 49 35 95 l43 46 -47 -45 -48 -44 -1 34 c0 19 0
60 2 90 1 30 3 67 3 82 1 14 3 26 6 26 3 -1 13 2 23 7 22 9 67 -20 83 -56 19
-40 26 -82 13 -73 -7 4 -10 2 -8 -5 3 -7 9 -13 14 -13 12 0 54 -136 49 -160
-1 -10 2 -18 7 -18 6 0 7 -9 4 -20 -4 -12 -2 -20 5 -20 6 0 9 -4 6 -9 -3 -5 1
-25 9 -45 8 -20 13 -36 10 -36 -3 0 2 -11 11 -25 8 -13 13 -29 9 -35 -3 -5 -1
-10 4 -10 6 0 11 -7 11 -16 0 -9 -5 -12 -12 -8 -7 4 -8 3 -4 -5 4 -6 12 -8 18
-5 7 5 9 -2 4 -19 -5 -23 8 -46 20 -34 3 3 -16 72 -41 153 -26 82 -48 158 -49
169 -3 19 -41 151 -53 181 -3 8 0 14 6 14 5 0 16 -18 22 -40 7 -22 15 -40 20
-40 4 0 10 -7 13 -16 3 -8 2 -12 -4 -9 -6 3 -10 1 -10 -4 0 -6 6 -11 13 -11
12 0 43 -66 39 -82 -1 -5 2 -8 7 -8 11 0 22 -38 12 -44 -3 -2 -15 17 -25 42
-33 86 -35 89 -29 50 10 -66 109 -373 120 -373 6 0 15 -4 20 -9 5 -5 3 -6 -4
-2 -16 9 -16 3 -2 -45 7 -21 16 -36 22 -32 6 3 7 1 4 -4 -4 -6 0 -46 9 -89 15
-73 15 -130 0 -235 -19 -128 -124 -74 -219 112 -26 52 -44 81 -41 64 8 -33 83
-181 114 -225 25 -35 25 -35 -5 -35 -14 0 -25 4 -25 10 0 5 -5 4 -11 -2 -6 -6
-18 -9 -27 -6 -10 4 -13 2 -8 -5 7 -11 -18 -17 -51 -13 -7 1 -13 -2 -13 -6 0
-4 -21 -9 -48 -11 -26 -1 -48 -7 -50 -12 -2 -5 -10 -6 -19 -3 -10 4 -14 2 -10
-4 7 -10 -9 -14 -107 -29 -21 -3 -55 -14 -74 -24 -21 -11 -40 -16 -45 -11 -10
10 -47 2 -47 -10 0 -5 -16 -9 -35 -9 -19 0 -35 -4 -35 -9 0 -4 -15 -8 -32 -8
-33 0 -54 -6 -95 -25 -12 -6 -29 -8 -37 -5 -9 4 -16 2 -16 -4 0 -6 -5 -7 -10
-4 -6 4 -17 1 -25 -5 -12 -10 -15 -10 -15 1 0 11 -2 11 -9 1 -4 -7 -19 -14
-32 -16 -14 -1 -31 -6 -38 -10 -7 -5 -31 -10 -54 -12 -22 -1 -43 -8 -47 -15
-4 -6 -12 -9 -16 -6 -5 2 -20 0 -34 -6 -56 -24 -153 -34 -205 -22 -32 7 -49
16 -47 24 2 8 -3 11 -12 8 -10 -4 -23 4 -35 21 -11 15 -31 34 -45 41 -14 8
-29 26 -35 40 -5 14 -23 62 -40 106 -17 44 -31 81 -31 83 0 1 11 2 24 2 14 0
28 4 31 10 8 13 -33 150 -46 150 -6 0 -6 -6 0 -18 6 -9 17 -38 25 -64 14 -45
14 -49 -4 -58 -17 -9 -22 -5 -41 35 -12 25 -25 48 -30 50 -10 7 10 -53 28 -81
7 -11 10 -23 7 -27 -3 -3 8 -43 25 -87 17 -45 29 -86 26 -90 -3 -5 1 -10 7
-13 25 -9 -7 -25 -81 -41 l-74 -17 -27 26 c-27 25 -46 60 -94 165 -14 30 -25
48 -26 40 0 -13 -1 -13 -10 0 -5 8 -10 10 -10 5 0 -6 16 -35 35 -65 34 -54 49
-92 20 -54 -8 10 -15 14 -15 8 0 -16 25 -35 35 -26 4 4 4 -4 1 -18 -6 -19 -5
-21 3 -10 9 13 11 13 11 1 0 -8 12 -28 27 -43 35 -36 10 -38 -37 -3 -19 14
-39 24 -46 21 -6 -2 -11 2 -11 9 0 8 7 11 16 7 13 -4 12 -1 -3 16 -10 12 -22
19 -26 17 -4 -2 -16 5 -26 18 -16 19 -17 20 -1 8 9 -8 21 -11 25 -7 4 4 -1 12
-11 17 -9 6 -17 16 -17 24 0 20 -35 76 -43 69 -3 -4 -9 7 -13 22 -4 16 -16 61
-26 99 -11 39 -26 97 -34 130 -23 88 -9 164 29 165 4 0 7 -17 8 -37 0 -21 4
-56 8 -78 7 -34 8 -29 7 32 0 47 5 77 13 85 10 11 12 9 10 -7 -1 -11 1 -40 5
-65 4 -25 9 -65 11 -90 3 -25 14 -82 25 -128 11 -46 18 -87 16 -91 -3 -4 2 -8
10 -8 10 0 13 6 9 16 -16 40 -55 255 -58 314 -2 61 -4 67 -29 78 -91 38 -116
-64 -67 -271 11 -47 21 -99 22 -117 2 -18 6 -36 11 -40 4 -4 5 4 1 20 -4 15
-5 27 -2 27 3 0 11 -24 17 -52 16 -68 46 -133 82 -180 32 -40 104 -74 140 -65
12 4 28 1 35 -4 9 -8 39 -5 103 10 l91 22 47 -51 c39 -42 57 -52 107 -65 33
-8 75 -12 95 -9 19 3 275 66 569 140 293 74 556 139 585 145 115 21 155 38
173 72 27 53 29 209 4 357 -45 266 -162 604 -232 668 -11 11 -22 27 -23 36 -2
16 -64 86 -76 86 -3 0 -15 -7 -27 -15z m73 -37 l29 -31 -32 23 c-20 14 -40 21
-56 18 -18 -4 -24 -1 -20 9 9 23 48 14 79 -19z m184 -389 c0 -10 5 -30 12 -46
6 -15 10 -36 9 -47 -2 -10 2 -15 7 -12 6 4 8 -2 5 -14 -3 -11 -1 -20 4 -20 5
0 10 -7 10 -15 0 -25 -22 -11 -25 16 -2 13 -8 28 -13 34 -5 5 -9 18 -9 30 0
12 -5 26 -12 33 -7 7 -9 12 -5 12 3 0 3 11 -2 23 -7 18 -6 24 5 24 8 0 14 -8
14 -18z m60 -183 c0 -2 -7 -7 -16 -10 -8 -3 -12 -2 -9 4 6 10 25 14 25 6z
m-1993 -112 c-3 -3 -12 -4 -19 -1 -8 3 -5 6 6 6 11 1 17 -2 13 -5z"/>
<path d="M2371 1924 c0 -11 3 -14 6 -6 3 7 2 16 -1 19 -3 4 -6 -2 -5 -13z"/>
<path d="M2243 1924 c-7 -3 -9 -12 -6 -20 3 -8 -4 -17 -18 -23 -13 -5 -17 -10
-9 -10 20 -1 32 9 48 37 12 22 9 25 -15 16z"/>
<path d="M2198 1903 c7 -3 16 -2 19 1 4 3 -2 6 -13 5 -11 0 -14 -3 -6 -6z"/>
<path d="M2100 1879 c-35 -12 -43 -16 -20 -12 40 7 112 32 90 31 -8 0 -40 -8
-70 -19z"/>
<path d="M2363 1825 c0 -27 2 -38 4 -22 2 15 2 37 0 50 -2 12 -4 0 -4 -28z"/>
<path d="M1987 1812 c-81 -25 -145 -47 -143 -49 4 -4 307 85 315 93 11 10 -35
-1 -172 -44z"/>
<path d="M1965 1840 c-13 -5 -14 -9 -5 -9 8 0 24 4 35 9 13 5 14 9 5 9 -8 0
-24 -4 -35 -9z"/>
<path d="M1660 1714 c-412 -127 -510 -155 -522 -148 -7 4 -10 4 -6 -1 4 -4 -1
-15 -10 -24 -10 -9 -13 -13 -6 -9 10 7 253 83 509 160 138 41 213 66 195 66
-8 0 -80 -20 -160 -44z"/>
<path d="M2239 1725 c-3 -2 -251 -72 -551 -154 -301 -83 -563 -157 -582 -165
-42 -17 -49 -31 -8 -15 15 6 277 80 582 164 305 84 566 158 580 163 22 10 23
11 4 11 -11 1 -23 -1 -25 -4z"/>
<path d="M2373 1685 c0 -22 2 -30 4 -17 2 12 2 30 0 40 -3 9 -5 -1 -4 -23z"/>
<path d="M2270 1695 c-4 -20 2 -70 9 -77 4 -5 5 9 3 30 -4 42 -9 63 -12 47z"/>
<path d="M2228 1632 l4 -59 -63 -17 c-35 -10 -82 -24 -104 -31 -22 -7 -82 -25
-133 -40 -50 -16 -90 -30 -88 -32 2 -3 96 23 208 57 111 33 211 63 221 66 9 3
17 10 17 17 0 8 -3 8 -12 -1 -24 -24 -38 -13 -38 31 0 23 -4 48 -8 55 -5 7 -6
-14 -4 -46z"/>
<path d="M2382 1620 c0 -14 2 -19 5 -12 2 6 2 18 0 25 -3 6 -5 1 -5 -13z"/>
<path d="M2392 1555 c0 -11 3 -29 8 -40 11 -25 11 1 0 35 -6 20 -8 21 -8 5z"/>
<path d="M2471 1495 c1 -19 18 -51 18 -35 0 8 -4 22 -9 30 -5 8 -9 11 -9 5z"/>
<path d="M2411 1454 c0 -11 3 -14 6 -6 3 7 2 16 -1 19 -3 4 -6 -2 -5 -13z"/>
<path d="M1476 1348 c-265 -81 -331 -97 -338 -86 -8 10 -9 9 -5 -3 4 -11 -6
-21 -29 -33 -33 -15 -35 -18 -28 -54 9 -51 18 -57 11 -6 -6 38 -5 41 27 57 19
8 141 48 272 87 132 39 284 85 339 102 98 29 123 39 94 37 -8 -1 -162 -46
-343 -101z"/>
<path d="M1053 1405 c0 -22 2 -30 4 -17 2 12 2 30 0 40 -3 9 -5 -1 -4 -23z"/>
<path d="M2501 1400 c0 -8 4 -22 9 -30 12 -18 12 -2 0 25 -6 13 -9 15 -9 5z"/>
<path d="M2431 1374 c0 -11 3 -14 6 -6 3 7 2 16 -1 19 -3 4 -6 -2 -5 -13z"/>
<path d="M1123 1335 c0 -22 2 -30 4 -17 2 12 2 30 0 40 -3 9 -5 -1 -4 -23z"/>
<path d="M2015 1260 c-165 -42 -428 -110 -585 -150 -157 -40 -289 -76 -294
-81 -12 -10 74 11 988 247 115 30 210 53 211 52 5 -7 44 -143 41 -145 -1 -1
-72 -23 -157 -47 -85 -24 -320 -93 -524 -152 -203 -59 -394 -113 -423 -120
-30 -7 -57 -16 -60 -19 -13 -13 75 9 283 70 44 13 262 76 485 140 223 64 407
118 409 121 2 2 -7 40 -20 84 -16 55 -29 80 -39 79 -8 0 -150 -36 -315 -79z"/>
<path d="M1071 1320 c-1 -8 -4 -26 -7 -40 -5 -19 -4 -22 5 -14 7 6 11 24 8 40
-2 16 -5 22 -6 14z"/>
<path d="M2710 1310 c0 -3 14 -48 31 -100 19 -61 32 -128 36 -185 6 -83 7 -87
16 -50 9 45 0 102 -39 230 -20 67 -44 124 -44 105z"/>
<path d="M2300 1294 c0 -16 32 -115 37 -111 5 5 -26 117 -33 117 -2 0 -4 -3
-4 -6z"/>
<path d="M2546 1237 c3 -10 9 -15 12 -12 3 3 0 11 -7 18 -10 9 -11 8 -5 -6z"/>
<path d="M603 1213 c-10 -16 -24 -34 -31 -42 -7 -8 -9 -17 -4 -20 5 -3 14 -46
21 -94 6 -49 20 -115 31 -149 10 -33 16 -67 13 -74 -3 -8 1 -22 9 -32 8 -9 27
-50 42 -89 15 -40 31 -73 35 -73 4 0 13 -11 19 -25 7 -14 23 -30 37 -37 19 -9
22 -14 14 -25 -6 -7 -18 -13 -27 -13 -26 0 -81 43 -87 68 -4 15 -11 22 -19 19
-8 -3 -22 3 -32 14 -20 23 -12 26 10 3 14 -14 16 -14 16 0 0 8 -6 19 -13 23
-7 4 -23 28 -36 52 -12 24 -28 50 -36 57 -8 8 -17 31 -20 52 -4 20 -15 64 -26
97 -43 139 -46 219 -9 243 17 10 19 5 28 -61 l9 -72 2 71 c0 38 6 75 12 81 9
9 5 14 -15 19 -31 8 -50 -6 -72 -52 -15 -32 -15 -42 5 -153 11 -65 30 -139 41
-165 23 -55 25 -67 7 -42 -12 16 -13 13 -11 -24 1 -23 8 -47 14 -54 13 -11 12
-6 -6 39 -3 8 -2 15 4 15 6 0 16 -17 22 -37 25 -76 52 -125 90 -163 46 -46 47
-50 20 -50 -11 0 -20 4 -20 9 0 5 -21 36 -47 69 -27 33 -53 68 -60 78 -11 18
-12 18 -12 2 -1 -10 -7 -18 -13 -19 -7 0 -22 -2 -33 -3 -11 -2 -58 -7 -105
-12 -47 -4 -89 -9 -95 -10 -5 -1 -14 -2 -19 -3 -5 0 -3 -9 5 -19 12 -15 11
-15 -3 -2 -26 25 -70 179 -66 233 l3 48 133 61 c72 34 130 63 127 66 -3 3 -56
-20 -118 -50 -63 -31 -129 -59 -148 -63 -71 -14 -130 -37 -139 -55 -32 -60 17
-238 75 -276 23 -15 30 -14 107 9 66 20 246 47 314 47 6 0 17 -12 23 -27 7
-16 29 -48 51 -73 l38 -45 24 21 c17 16 32 20 60 17 27 -4 41 0 56 15 13 13
28 18 49 15 32 -5 73 11 73 28 0 6 -7 6 -20 -1 -12 -6 -30 -8 -41 -5 -23 7
-69 48 -69 61 -1 17 -48 66 -58 60 -6 -3 -8 2 -5 13 5 18 -19 65 -43 86 -7 6
-24 55 -38 110 -15 55 -31 116 -36 135 -12 45 -13 163 -1 155 5 -3 12 -1 16 5
14 22 22 7 24 -43 1 -30 6 -67 10 -83 6 -19 7 -4 3 44 -5 68 -4 72 14 66 14
-4 16 -4 5 4 -8 6 -11 17 -8 25 6 15 -11 27 -39 27 -7 0 -21 -12 -31 -27z m54
11 c-3 -3 -12 -4 -19 -1 -8 3 -5 6 6 6 11 1 17 -2 13 -5z m-477 -383 c0 -27 9
-77 20 -112 10 -34 17 -66 14 -71 -3 -4 0 -8 5 -8 6 0 11 -9 11 -19 0 -19 -31
-33 -80 -35 -62 -2 -133 214 -84 255 16 14 76 36 102 38 8 1 12 -15 12 -48z
m473 -21 c3 -11 1 -18 -4 -14 -5 3 -9 12 -9 20 0 20 7 17 13 -6z"/>
<path d="M1197 1185 c3 -22 7 -42 9 -44 8 -9 2 45 -6 64 -7 14 -8 8 -3 -20z"/>
<path d="M2501 1160 c0 -14 28 -72 29 -59 0 4 -7 22 -15 40 -8 19 -14 27 -14
19z"/>
<path d="M2580 1125 c0 -8 4 -15 10 -15 5 0 7 7 4 15 -4 8 -8 15 -10 15 -2 0
-4 -7 -4 -15z"/>
<path d="M1211 1114 c0 -11 3 -14 6 -6 3 7 2 16 -1 19 -3 4 -6 -2 -5 -13z"/>
<path d="M1091 1104 c0 -11 3 -14 6 -6 3 7 2 16 -1 19 -3 4 -6 -2 -5 -13z"/>
<path d="M1102 1060 c0 -14 2 -19 5 -12 2 6 2 18 0 25 -3 6 -5 1 -5 -13z"/>
<path d="M2338 1053 c7 -3 16 -2 19 1 4 3 -2 6 -13 5 -11 0 -14 -3 -6 -6z"/>
<path d="M551 1014 c0 -11 3 -14 6 -6 3 7 2 16 -1 19 -3 4 -6 -2 -5 -13z"/>
<path d="M792 1010 c0 -14 2 -19 5 -12 2 6 2 18 0 25 -3 6 -5 1 -5 -13z"/>
<path d="M676 990 c4 -19 10 -42 15 -50 11 -18 1 34 -13 65 -5 13 -6 9 -2 -15z"/>
<path d="M1090 990 c-6 -11 -9 -20 -8 -20 2 0 11 9 21 20 9 11 13 20 7 20 -5
0 -14 -9 -20 -20z"/>
<path d="M2355 1000 c-3 -5 1 -10 10 -10 9 0 13 5 10 10 -3 6 -8 10 -10 10 -2
0 -7 -4 -10 -10z"/>
<path d="M1191 990 c0 -8 4 -24 9 -35 5 -13 9 -14 9 -5 0 8 -4 24 -9 35 -5 13
-9 14 -9 5z"/>
<path d="M561 969 c0 -13 4 -33 9 -44 7 -14 8 -8 3 20 -7 46 -13 59 -12 24z"/>
<path d="M2453 963 c-28 -5 -29 -16 -5 -34 15 -13 16 -12 3 4 -12 15 -11 17 8
17 11 0 21 5 21 10 0 6 -1 9 -2 9 -2 -1 -13 -4 -25 -6z"/>
<path d="M807 943 c-3 -5 -1 -18 4 -31 11 -28 29 -21 22 8 -6 23 -19 34 -26
23z"/>
<path d="M2231 907 c-90 -23 -159 -43 -153 -45 10 -3 333 76 341 84 9 9 -28 1
-188 -39z"/>
<path d="M2695 890 c25 -22 48 -40 50 -40 9 0 35 33 35 43 0 7 -5 4 -11 -5
-15 -26 -42 -22 -74 12 -16 17 -33 30 -37 30 -5 0 12 -18 37 -40z"/>
<path d="M691 908 c0 -7 4 -22 8 -32 10 -25 22 -6 14 22 -6 23 -23 31 -22 10z"/>
<path d="M1828 913 c7 -3 16 -2 19 1 4 3 -2 6 -13 5 -11 0 -14 -3 -6 -6z"/>
<path d="M2466 893 c5 -16 -13 -23 -148 -57 -84 -21 -182 -47 -218 -58 -36
-11 -74 -21 -85 -23 -11 -2 -33 -8 -50 -15 -16 -6 -32 -12 -35 -12 -3 0 -9 -2
-15 -3 -63 -18 -265 -68 -280 -71 -11 -1 -42 -9 -69 -18 -27 -8 -53 -13 -58
-10 -4 3 -8 0 -8 -5 0 -6 -8 -11 -18 -11 -19 0 -134 -38 -142 -47 -12 -13 98
13 430 103 195 52 437 118 538 145 101 27 194 49 208 49 25 0 25 0 7 24 -13
18 -19 20 -21 9 -3 -12 -6 -12 -22 2 -17 16 -18 16 -14 -2z"/>
<path d="M580 873 c0 -23 16 -48 23 -37 5 10 -9 54 -18 54 -3 0 -5 -8 -5 -17z"/>
<path d="M791 866 c7 -14 16 -26 20 -26 12 0 -6 43 -20 48 -9 3 -9 -2 0 -22z"/>
<path d="M1898 873 c7 -3 16 -2 19 1 4 3 -2 6 -13 5 -11 0 -14 -3 -6 -6z"/>
<path d="M677 840 c6 -22 23 -38 23 -21 0 17 -12 41 -20 41 -5 0 -6 -9 -3 -20z"/>
<path d="M2010 850 c-20 -6 -21 -8 -5 -8 11 0 29 3 40 8 25 11 -1 11 -35 0z"/>
<path d="M830 846 c0 -15 29 -74 40 -81 6 -4 2 13 -10 36 -24 47 -30 56 -30
45z"/>
<path d="M1950 699 c-300 -82 -558 -149 -575 -149 -23 0 -27 -3 -15 -10 8 -6
29 -7 45 -4 65 12 412 102 578 149 9 3 25 7 35 9 9 2 46 12 82 21 36 9 70 18
75 20 6 1 17 4 25 7 36 13 184 51 196 51 8 0 14 4 14 9 0 5 4 7 8 4 11 -7 81
14 107 31 19 12 18 13 -5 12 -14 -1 -270 -68 -570 -150z"/>
<path d="M1301 824 c0 -11 3 -14 6 -6 3 7 2 16 -1 19 -3 4 -6 -2 -5 -13z"/>
<path d="M1812 802 c-79 -20 -139 -38 -134 -40 5 -1 65 11 132 28 68 17 129
29 137 26 8 -3 11 -2 8 3 -3 5 3 12 12 14 12 3 13 5 3 5 -8 0 -79 -16 -158
-36z"/>
<path d="M564 817 c3 -10 6 -23 6 -28 0 -5 5 -9 10 -9 14 0 12 13 -6 36 -14
17 -15 17 -10 1z"/>
<path d="M1171 825 c0 -5 6 -21 14 -35 8 -14 14 -20 14 -15 0 6 -6 21 -14 35
-8 14 -14 21 -14 15z"/>
<path d="M721 814 c-2 -20 21 -74 30 -74 5 0 3 12 -4 28 -8 15 -17 34 -20 42
-3 8 -6 10 -6 4z"/>
<path d="M605 788 c8 -43 24 -78 34 -78 19 0 22 20 6 47 -16 27 -15 22 0 -22
7 -20 7 -20 -7 0 -8 11 -20 34 -27 50 -10 28 -11 28 -6 3z"/>
<path d="M1638 803 c7 -3 16 -2 19 1 4 3 -2 6 -13 5 -11 0 -14 -3 -6 -6z"/>
<path d="M750 795 c0 -5 5 -17 10 -25 5 -8 10 -10 10 -5 0 6 -5 17 -10 25 -5
8 -10 11 -10 5z"/>
<path d="M1018 793 c7 -3 16 -2 19 1 4 3 -2 6 -13 5 -11 0 -14 -3 -6 -6z"/>
<path d="M1240 781 c0 -6 4 -13 10 -16 6 -3 7 1 4 9 -7 18 -14 21 -14 7z"/>
<path d="M1540 779 c0 -5 5 -7 10 -4 6 3 10 8 10 11 0 2 -4 4 -10 4 -5 0 -10
-5 -10 -11z"/>
<path d="M1085 770 c-3 -6 1 -7 9 -4 18 7 21 14 7 14 -6 0 -13 -4 -16 -10z"/>
<path d="M1015 750 c3 -5 8 -10 11 -10 2 0 4 5 4 10 0 6 -5 10 -11 10 -5 0 -7
-4 -4 -10z"/>
<path d="M1200 751 c0 -6 4 -13 10 -16 6 -3 7 1 4 9 -7 18 -14 21 -14 7z"/>
<path d="M1638 753 c7 -3 16 -2 19 1 4 3 -2 6 -13 5 -11 0 -14 -3 -6 -6z"/>
<path d="M975 740 c-3 -6 1 -7 9 -4 18 7 21 14 7 14 -6 0 -13 -4 -16 -10z"/>
<path d="M1565 740 c-20 -9 -20 -9 0 -9 11 0 29 4 40 9 20 9 20 9 0 9 -11 0
-29 -4 -40 -9z"/>
<path d="M1340 721 c0 -6 4 -13 10 -16 6 -3 7 1 4 9 -7 18 -14 21 -14 7z"/>
<path d="M1427 708 c-43 -11 -76 -22 -74 -24 5 -5 187 36 187 42 0 7 -33 2
-113 -18z"/>
<path d="M797 672 c10 -18 29 -43 42 -55 l25 -22 -22 30 c-12 17 -31 41 -43
55 l-21 25 19 -33z"/>
<path d="M675 656 c10 -14 19 -26 22 -26 7 0 -17 39 -28 46 -6 3 -3 -5 6 -20z"/>
<path d="M1245 670 c-3 -5 -1 -18 4 -27 8 -14 11 -15 11 -3 1 8 9 -1 20 -20
11 -19 19 -29 20 -22 0 19 -31 63 -41 56 -5 -3 -9 -1 -9 5 0 5 21 12 48 14
l47 3 -47 2 c-26 1 -50 -2 -53 -8z"/>
<path d="M707 614 c-3 -4 3 -15 13 -27 26 -27 34 -19 10 10 -9 12 -20 20 -23
17z"/>
</g>
</svg>
