<svg xmlns="http://www.w3.org/2000/svg" viewBox="0 0 64 80" x="0px" y="0px"><path d="M47,31h7v9a1,1,0,0,0,2,0V30a1,1,0,0,0-1-1H47a1,1,0,0,0,0,2Z" style="" fill="none"/><path d="M55,43a1,1,0,0,0-1,1v2a1,1,0,0,0,2,0V44A1,1,0,0,0,55,43Z" style="" fill="none"/><path d="M42,21h8a1,1,0,0,0,0-2H42a1,1,0,0,0,0,2Z" style="" fill="none"/><path d="M42,15h8a1,1,0,0,0,0-2H42a1,1,0,0,0,0,2Z" style="" fill="none"/><path d="M15,31h7V42a1,1,0,0,0,2,0V30a1,1,0,0,0-1-1H15a1,1,0,0,0,0,2Z" style="" fill="none"/><path d="M23,45a1,1,0,0,0-1,1v2a1,1,0,0,0,2,0V46A1,1,0,0,0,23,45Z" style="" fill="none"/><path d="M8,59a1,1,0,0,0,1,1H21a1,1,0,0,0,1-1V56H8Z"/><path d="M5,54H25a1,1,0,0,0,1-1V28a1,1,0,0,0-1-1H5a1,1,0,0,0-1,1V53A1,1,0,0,0,5,54Zm19-6a1,1,0,0,1-2,0V46a1,1,0,0,1,2,0ZM15,29h8a1,1,0,0,1,1,1V42a1,1,0,0,1-2,0V31H15a1,1,0,0,1,0-2Z"/><rect x="12" y="10" width="6" height="4"/><path d="M18,5a1,1,0,0,0-1-1H13a1,1,0,0,0-1,1V8h6Z"/><polygon points="18.3 16 11.7 16 8.428 25 21.572 25 18.3 16"/><path d="M59,51H56v5a1,1,0,0,1-1,1H49a1,1,0,0,1-1-1V51H44v5a1,1,0,0,1-1,1H37a1,1,0,0,1-1-1V51H33a1,1,0,0,0-1,1v7a1,1,0,0,0,1,1H59a1,1,0,0,0,1-1V52A1,1,0,0,0,59,51Z"/><path d="M38,21a2,2,0,0,0,0,4H54a2,2,0,0,0,0-4,1,1,0,0,1,0-2,2,2,0,0,0,0-4,1,1,0,0,1,0-2,2,2,0,0,0,0-4H38a2,2,0,0,0,0,4,1,1,0,0,1,0,2,2,2,0,0,0,0,4,1,1,0,0,1,0,2Zm4-8h8a1,1,0,0,1,0,2H42a1,1,0,0,1,0-2Zm0,6h8a1,1,0,0,1,0,2H42a1,1,0,0,1,0-2Z"/><path d="M35,49h2a1,1,0,0,1,1,1v5h4V50a1,1,0,0,1,1-1h6a1,1,0,0,1,1,1v5h4V50a1,1,0,0,1,1-1h2a1,1,0,0,0,1-1V28a1,1,0,0,0-1-1H35a1,1,0,0,0-1,1V48A1,1,0,0,0,35,49Zm21-3a1,1,0,0,1-2,0V44a1,1,0,0,1,2,0ZM47,29h8a1,1,0,0,1,1,1V40a1,1,0,0,1-2,0V31H47a1,1,0,0,1,0-2Z"/></svg>