<?xml version="1.0" standalone="no"?>
<!DOCTYPE svg PUBLIC "-//W3C//DTD SVG 20010904//EN"
 "http://www.w3.org/TR/2001/REC-SVG-20010904/DTD/svg10.dtd">
<svg version="1.0" xmlns="http://www.w3.org/2000/svg"
 width="2000.000000pt" height="655.000000pt" viewBox="0 0 2000.000000 655.000000"
 preserveAspectRatio="xMidYMid meet">
<metadata>
Created by potrace 1.16, written by Peter Selinger 2001-2019
</metadata>
<g transform="translate(0.000000,655.000000) scale(0.100000,-0.100000)"
fill="#000000" stroke="none">
<path d="M470 5475 c-96 -30 -125 -82 -125 -226 0 -98 2 -108 27 -147 57 -86
97 -92 681 -92 l457 0 0 -1537 c0 -1621 0 -1601 44 -1664 62 -89 235 -121 387
-73 53 17 90 52 116 109 17 38 18 122 21 1602 l2 1562 508 3 c493 3 508 4 553
24 85 40 126 127 117 247 -9 104 -55 166 -141 192 -73 22 -2577 21 -2647 0z"/>
<path d="M13785 5467 c-90 -30 -126 -60 -166 -137 -33 -62 -35 -212 -3 -280
26 -56 81 -109 136 -132 67 -27 200 -24 263 6 65 30 110 77 130 135 56 164 7
322 -118 385 -69 34 -176 44 -242 23z"/>
<path d="M18095 4871 c-72 -18 -131 -66 -169 -136 -21 -40 -21 -44 -21 -710
l0 -670 22 -41 c43 -81 126 -134 209 -134 101 0 182 50 226 138 l23 47 0 665
c0 629 -1 667 -19 700 -56 105 -173 166 -271 141z"/>
<path d="M4000 4535 c-283 -42 -498 -144 -668 -318 -107 -108 -150 -169 -220
-312 -105 -212 -152 -451 -152 -765 0 -332 45 -561 155 -786 191 -393 519
-599 1013 -634 346 -25 660 41 884 186 169 108 333 314 383 481 18 57 19 177
4 224 -28 84 -105 124 -223 117 -110 -7 -147 -33 -235 -163 -213 -313 -359
-415 -615 -432 -355 -23 -668 196 -775 541 -24 77 -51 231 -51 288 l0 37 858
3 c781 3 862 5 908 21 73 24 125 66 159 128 30 53 30 56 30 204 0 216 -40 383
-136 581 -171 347 -471 554 -874 603 -116 14 -336 12 -445 -4z m375 -420 c280
-73 478 -322 539 -677 l7 -38 -706 0 -707 0 7 33 c17 77 78 246 111 304 104
187 275 331 447 378 71 19 229 19 302 0z"/>
<path d="M6171 4537 c-49 -15 -95 -67 -123 -134 l-23 -58 -3 -1185 c-2 -811 1
-1207 8 -1255 15 -96 34 -124 105 -160 54 -27 69 -30 156 -29 84 0 103 4 152
27 46 23 60 36 79 75 l23 47 6 770 c5 748 6 773 28 875 39 184 101 309 195
397 76 72 149 114 246 144 100 30 249 25 332 -13 117 -54 182 -147 212 -307
14 -72 16 -200 16 -925 0 -539 4 -864 11 -906 14 -91 34 -120 104 -155 54 -27
69 -30 156 -29 84 0 103 4 152 27 46 23 60 36 79 75 l23 47 6 810 c6 876 6
864 62 1005 59 146 155 255 283 322 91 48 169 68 264 68 219 0 346 -101 397
-315 14 -61 17 -179 22 -950 5 -782 8 -885 23 -923 26 -68 59 -110 113 -139
43 -23 62 -27 135 -28 137 0 210 40 242 133 17 50 25 1836 8 1994 -13 134 -39
236 -85 334 -28 61 -52 93 -113 154 -95 94 -196 148 -352 187 -95 24 -123 27
-290 27 -202 1 -288 -14 -422 -70 -152 -64 -293 -189 -351 -311 l-32 -68 -6
50 c-15 116 -117 234 -270 309 -157 77 -299 102 -529 93 -175 -7 -301 -36
-417 -96 -132 -69 -210 -150 -257 -265 l-23 -56 -6 137 c-3 76 -10 149 -15
163 -15 40 -71 88 -120 105 -52 17 -150 18 -201 2z"/>
<path d="M10510 4535 c-63 -20 -99 -61 -116 -132 -11 -48 -14 -351 -14 -1743
0 -1834 -2 -1766 55 -1852 14 -20 46 -50 72 -65 43 -25 57 -28 138 -28 77 0
96 3 135 25 24 14 57 43 72 65 54 77 58 124 58 745 1 524 2 563 17 540 9 -14
53 -61 98 -106 71 -71 98 -89 206 -142 209 -104 438 -144 687 -122 590 52 956
426 1059 1085 24 153 24 461 -1 610 -107 661 -437 1038 -981 1122 -120 18
-388 12 -505 -12 -293 -59 -531 -226 -580 -405 -4 -15 -9 17 -13 82 -8 152
-30 221 -86 279 -30 30 -60 51 -86 58 -54 15 -160 13 -215 -4z m1312 -436 c29
-6 98 -32 153 -59 256 -126 420 -381 466 -728 17 -127 6 -385 -20 -492 -28
-111 -74 -229 -124 -312 -155 -259 -429 -395 -693 -345 -334 63 -570 300 -661
663 -26 103 -28 122 -28 329 0 208 2 226 28 323 87 327 282 536 572 612 80 21
226 26 307 9z"/>
<path d="M13751 4536 c-56 -19 -96 -58 -118 -115 -17 -43 -18 -124 -18 -1271
0 -1169 1 -1227 19 -1278 34 -100 93 -144 213 -157 74 -9 172 14 221 52 19 14
44 47 56 72 l21 46 3 1190 c2 767 -1 1220 -7 1274 -13 100 -39 148 -98 177
-50 24 -228 30 -292 10z"/>
<path d="M15050 4523 c-65 -33 -95 -83 -111 -184 -16 -102 -7 -2433 10 -2482
17 -53 73 -111 118 -125 148 -44 289 -13 350 77 45 67 46 74 53 811 6 578 10
722 23 802 53 317 146 492 304 570 55 27 79 33 152 36 75 3 98 0 186 -28 115
-37 224 -48 279 -30 52 17 106 67 128 118 28 62 27 167 -2 226 -64 134 -256
223 -505 233 -251 10 -413 -64 -523 -238 -29 -45 -75 -151 -87 -201 -16 -62
-25 -21 -25 108 0 157 -10 208 -53 259 -65 79 -194 100 -297 48z"/>
<path d="M17339 4375 c-59 -19 -214 -148 -300 -251 -162 -195 -261 -389 -317
-627 -24 -101 -26 -132 -27 -312 0 -156 4 -219 18 -285 44 -206 137 -419 254
-582 221 -309 578 -524 968 -584 145 -23 384 -14 526 19 559 131 974 548 1107
1111 24 100 26 131 27 306 0 149 -4 216 -18 283 -59 294 -221 588 -425 775
-143 131 -216 168 -306 157 -127 -16 -209 -110 -209 -240 1 -86 24 -124 152
-243 162 -151 249 -291 303 -491 32 -115 32 -353 0 -471 -45 -163 -127 -312
-238 -429 -91 -97 -170 -155 -289 -212 -159 -76 -240 -94 -425 -93 -181 1
-256 17 -405 88 -119 56 -172 93 -264 180 -92 89 -148 166 -205 287 -62 128
-86 227 -93 379 -12 298 93 543 328 762 118 110 135 133 148 203 18 96 -29
201 -112 249 -54 32 -136 41 -198 21z"/>
</g>
</svg>
