<?xml version="1.0" standalone="no"?>
<!DOCTYPE svg PUBLIC "-//W3C//DTD SVG 20010904//EN"
 "http://www.w3.org/TR/2001/REC-SVG-20010904/DTD/svg10.dtd">
<svg version="1.0" xmlns="http://www.w3.org/2000/svg"
 width="44.000000pt" height="44.000000pt" viewBox="0 0 44.000000 44.000000"
 preserveAspectRatio="xMidYMid meet">
<metadata>
Created by potrace 1.16, written by Peter Selinger 2001-2019
</metadata>
<g transform="translate(0.000000,44.000000) scale(0.100000,-0.100000)"
fill="#000000" stroke="none">
<path d="M125 424 c-83 -45 -125 -114 -125 -204 0 -91 42 -160 124 -202 31
-16 54 -19 111 -16 83 4 128 28 173 92 24 35 27 48 27 126 0 79 -2 90 -28 123
-15 20 -44 49 -64 64 -31 24 -47 28 -112 31 -55 2 -84 -2 -106 -14z m196 -17
c68 -36 103 -93 107 -175 4 -84 -23 -143 -86 -187 -35 -24 -55 -30 -110 -33
-83 -4 -142 23 -186 86 -34 48 -46 136 -27 195 14 42 72 104 115 123 50 22
136 18 187 -9z"/>
</g>
</svg>
